HIERARCHY
ROOT Hips
{
 OFFSET 0.000000 0.000000 0.000000
 CHANNELS 6 Xposition Yposition Zposition Yrotation Xrotation Zrotation
 JOINT Chest
 {
  OFFSET 0.000000 10.080317 -0.001081
  CHANNELS 3 Yrotation Xrotation Zrotation
  JOINT Chest2
  {
   OFFSET 0.000000 11.096852 0.001963
   CHANNELS 3 Yrotation Xrotation Zrotation
   JOINT Chest3
   {
    OFFSET 0.000000 10.026525 0.000000
    CHANNELS 3 Yrotation Xrotation Zrotation
    JOINT Chest4
    {
     OFFSET 0.000000 10.026525 0.000000
     CHANNELS 3 Yrotation Xrotation Zrotation
     JOINT Neck
     {
      OFFSET 0.000000 14.108171 0.000000
      CHANNELS 3 Yrotation Xrotation Zrotation
      JOINT Head
      {
       OFFSET 0.000000 9.333493 0.004668
       CHANNELS 3 Yrotation Xrotation Zrotation
       End Site
       {
        OFFSET 0.000000 17.851786 0.002438
       }
      }
     }
     JOINT RightCollar
     {
      OFFSET -3.071622 7.873185 0.000000
      CHANNELS 3 Yrotation Xrotation Zrotation
      JOINT RightShoulder
      {
       OFFSET -14.378659 0.000000 0.000000
       CHANNELS 3 Yrotation Xrotation Zrotation
       JOINT RightElbow
       {
        OFFSET -30.778728 0.000000 0.000000
        CHANNELS 3 Yrotation Xrotation Zrotation
        JOINT RightWrist
        {
         OFFSET -25.164217 0.000000 0.000000
         CHANNELS 3 Yrotation Xrotation Zrotation
         End Site
         {
          OFFSET -18.796788 0.000000 0.000000
         }
        }
       }
      }
     }
     JOINT LeftCollar
     {
      OFFSET 3.071622 7.873185 0.000000
      CHANNELS 3 Yrotation Xrotation Zrotation
      JOINT LeftShoulder
      {
       OFFSET 14.378659 0.000000 0.000000
       CHANNELS 3 Yrotation Xrotation Zrotation
       JOINT LeftElbow
       {
        OFFSET 30.778728 0.000000 0.000000
        CHANNELS 3 Yrotation Xrotation Zrotation
        JOINT LeftWrist
        {
         OFFSET 25.164217 0.000000 0.000000
         CHANNELS 3 Yrotation Xrotation Zrotation
         End Site
         {
          OFFSET 18.796788 0.000000 0.000000
         }
        }
       }
      }
     }
    }
   }
  }
 }
 JOINT RightHip
 {
  OFFSET -8.194923 0.005295 0.000540
  CHANNELS 3 Yrotation Xrotation Zrotation
  JOINT RightKnee
  {
   OFFSET 0.000000 -42.473320 -0.000511
   CHANNELS 3 Yrotation Xrotation Zrotation
   JOINT RightAnkle
   {
    OFFSET 0.000000 -41.474259 -0.000865
    CHANNELS 3 Yrotation Xrotation Zrotation
    JOINT RightToe
    {
     OFFSET 0.000000 -7.354994 16.712725
     CHANNELS 3 Yrotation Xrotation Zrotation
     End Site
     {
      OFFSET 0.000000 -1.553903 6.764158
     }
    }
   }
  }
 }
 JOINT LeftHip
 {
  OFFSET 8.194923 0.005295 0.000540
  CHANNELS 3 Yrotation Xrotation Zrotation
  JOINT LeftKnee
  {
   OFFSET 0.000000 -42.473320 -0.000511
   CHANNELS 3 Yrotation Xrotation Zrotation
   JOINT LeftAnkle
   {
    OFFSET 0.000000 -41.474259 -0.000865
    CHANNELS 3 Yrotation Xrotation Zrotation
    JOINT LeftToe
    {
     OFFSET 0.000000 -7.354994 16.712725
     CHANNELS 3 Yrotation Xrotation Zrotation
     End Site
     {
      OFFSET 0.000000 -1.553903 6.764158
     }
    }
   }
  }
 }
}
MOTION
Frames: 8
Frame Time: 0.016667
0.000000 91.111157 0.000000 0.000000 -5.826342 0.000000 0.000000 11.116423 0.000000 0.000000 -5.290081 0.000000 0.000000 0.000000 0.000000 0.000000 0.000000 0.000000 0.000000 12.665069 0.000000 0.000000 0.575450 0.000000 0.000000 0.000000 0.000000 0.000000 0.000000 0.000000 2.337306 0.000000 0.000000 -2.337306 0.000000 0.000000 0.000000 0.000000 0.000000 0.000000 0.000000 0.000000 -2.337306 0.000000 0.000000 2.337306 0.000000 0.000000 0.000000 8.578828 0.000000 0.000000 1.905768 0.000000 0.000000 -4.658254 0.000000 0.000000 0.000000 0.000000 0.000000 8.578828 0.000000 0.000000 1.905768 0.000000 0.000000 -4.658254 0.000000 0.000000 0.000000 0.000000
-189.950747 92.678472 77.777925 -8.815100 -0.595701 -0.151622 2.778703 2.250032 -0.260377 1.206278 0.978890 -0.116850 1.206278 0.978890 -0.116850 0.904873 0.733940 -0.089568 -0.438079 19.001925 0.927313 -1.099630 -0.884239 1.839129 -4.178002 -0.826542 11.060262 0.301748 -3.553343 69.347096 17.359247 20.771019 9.936205 -5.249140 7.014227 -9.305241 -3.782927 -0.312925 -5.279587 -5.064293 -7.992439 -70.169400 -11.739394 19.739257 -15.153542 5.201534 5.171481 12.837294 -11.528294 3.171103 -3.395376 -3.898130 1.940378 0.553705 -11.882293 -3.823928 3.028539 0.070051 0.044346 0.065263 1.800849 5.408685 2.438456 -2.681534 3.928876 -2.411877 -2.085171 -7.694179 0.296724 -0.144510 0.041696 -0.091050
-189.929761 92.672777 77.799322 -8.841961 -0.566925 -0.160532 2.799359 2.233008 -0.265818 1.216618 0.972225 -0.120821 1.216618 0.972225 -0.120821 0.912634 0.728931 -0.092549 -0.435973 18.975716 0.924714 -1.095381 -0.932994 1.834069 -4.188546 -0.878147 11.054492 0.290386 -3.529526 69.370012 17.405019 20.793658 9.972264 -5.242622 7.017993 -9.284580 -3.804739 -0.376792 -5.252240 -5.011562 -7.979340 -70.147040 -11.699974 19.751903 -15.116844 5.208691 5.172798 12.848625 -11.469137 3.168256 -3.393144 -3.922784 1.916113 0.555763 -11.884700 -3.849001 3.055100 0.070452 0.062680 0.047210 1.780968 5.419661 2.407666 -2.671116 3.890390 -2.382119 -2.068024 -7.715777 0.340026 -0.148529 0.052959 -0.114732
-189.902938 92.668491 77.826067 -8.842104 -0.547773 -0.166631 2.807449 2.212885 -0.269171 1.223161 0.965801 -0.121642 1.223161 0.965801 -0.121642 0.917541 0.724111 -0.093163 -0.443913 18.958589 0.912096 -1.106168 -0.964865 1.813744 -4.197347 -0.901804 11.040921 0.277811 -3.514696 69.377246 17.440996 20.802816 10.013064 -5.252008 7.029707 -9.288929 -3.822963 -0.422777 -5.243526 -4.974457 -7.973903 -70.128656 -11.663663 19.775886 -15.079990 5.206170 5.149357 12.849777 -11.399964 3.188703 -3.418933 -3.960695 1.880302 0.591239 -11.899291 -3.872496 3.082212 0.070260 0.076304 0.026303 1.746447 5.423981 2.383126 -2.692001 3.882749 -2.380791 -2.034510 -7.750464 0.417528 -0.157283 0.058332 -0.146476
-189.870909 92.662126 77.859404 -8.836033 -0.548462 -0.174610 2.816993 2.202636 -0.269848 1.228330 0.961488 -0.121385 1.228330 0.961488 -0.121385 0.921417 0.720876 -0.092970 -0.458046 18.944415 0.907717 -1.130893 -0.990990 1.810461 -4.207545 -0.918894 11.013415 0.247017 -3.498597 69.399002 17.468607 20.840197 10.050704 -5.250372 7.027656 -9.315170 -3.819604 -0.448968 -5.231818 -4.992283 -7.978177 -70.126816 -11.621928 19.764908 -15.041987 5.207944 5.142430 12.853416 -11.331714 3.230266 -3.459745 -3.973218 1.850675 0.642917 -11.924663 -3.904191 3.112822 0.070364 0.088625 0.005320 1.688047 5.433936 2.356253 -2.686697 3.914330 -2.385188 -2.013571 -7.809156 0.511143 -0.167910 0.061875 -0.177792
-189.826412 92.651076 77.902082 -8.822742 -0.562537 -0.183344 2.821189 2.199741 -0.272112 1.229379 0.958223 -0.118984 1.229379 0.958223 -0.118984 0.922200 0.718431 -0.091164 -0.477832 18.932026 0.898088 -1.164264 -1.013785 1.799353 -4.206010 -0.940175 10.978035 0.230186 -3.467200 69.398210 17.498644 20.868944 10.099943 -5.251780 7.030305 -9.327033 -3.822523 -0.478745 -5.217044 -5.003545 -7.967248 -70.148561 -11.606847 19.765816 -15.014734 5.223964 5.144532 12.845089 -11.169255 3.293945 -3.516559 -4.041222 1.826778 0.713762 -11.956374 -3.954651 3.162254 0.073313 0.107639 -0.025210 1.599477 5.404273 2.303514 -2.684800 4.065047 -2.373865 -1.940682 -7.937146 0.612379 -0.187036 0.069092 -0.208447
-189.771519 92.636009 77.948302 -8.808361 -0.582592 -0.200177 2.820983 2.198944 -0.270140 1.230351 0.958088 -0.114067 1.230351 0.958088 -0.114067 0.922921 0.718340 -0.087478 -0.490916 18.926359 0.890811 -1.185998 -1.024184 1.790307 -4.182327 -0.967852 10.934266 0.230314 -3.415164 69.378079 17.533888 20.861425 10.134939 -5.254401 7.038272 -9.321891 -3.801140 -0.518705 -5.215048 -5.018820 -7.937611 -70.159438 -11.631198 19.774643 -15.010493 5.216064 5.153785 12.805781 -10.959975 3.374874 -3.590873 -4.132481 1.795223 0.817703 -12.132517 -4.009019 3.225286 0.078493 0.136673 -0.057836 1.474096 5.311747 2.263098 -2.689115 4.354172 -2.396798 -1.855936 -8.132222 0.749909 -0.212041 0.074626 -0.243420
-189.704324 92.621783 78.006216 -8.791393 -0.634575 -0.227675 2.822892 2.216412 -0.260620 1.229289 0.963778 -0.106773 1.229289 0.963778 -0.106773 0.922113 0.722623 -0.082017 -0.499970 18.928823 0.892282 -1.203021 -1.019406 1.795875 -4.205786 -0.987027 10.883823 0.234780 -3.377166 69.353964 17.555599 20.883956 10.177220 -5.239697 7.057754 -9.322082 -3.793030 -0.554805 -5.218684 -5.031866 -7.919328 -70.171762 -11.656868 19.766939 -15.029703 5.197107 5.179034 12.787011 -10.698645 3.498656 -3.663832 -4.194662 1.762096 0.924202 -12.341130 -4.066786 3.307500 0.085995 0.159783 -0.094715 1.274417 5.169548 2.249779 -2.659665 4.824392 -2.501282 -1.748359 -8.409443 0.926778 -0.239142 0.067453 -0.261028
